<?xml version="1.0" standalone="no"?>
<!DOCTYPE svg PUBLIC "-//W3C//DTD SVG 1.1//EN"
"http://www.w3.org/Graphics/SVG/1.1/DTD/svg11.dtd">

<svg width="396" height="227" view_box="0 0 396 227"
xmlns="http://www.w3.org/2000/svg"
xmlns:link="http://www.w3.org/1999/xlink">\n\n<desc>Généré par Mocodo 2.3.7 le Fri, 17 May 2019 00:53:15</desc>

<rect id="frame" x="0" y="0" width="396" height="227" fill="#f7f7f7" stroke="none" stroke-width="0"/>

<!-- Association is tagged as -->
<line x1="190" y1="62" x2="329" y2="62" stroke="#5aae61" stroke-width="1"/>
<text x="243" y="78.0" fill="#762a83" font-family="Courier New" font-size="12">0,N</text>
<line x1="329" y1="165" x2="329" y2="62" stroke="#5aae61" stroke-width="1"/>
<text x="334.0" y="113" fill="#762a83" font-family="Courier New" font-size="12">0,N</text>
<g id="association-is tagged as">
	<path d="M 373 36 a 14 14 90 0 1 14 14 V 62 h -116 V 50 a 14 14 90 0 1 14 -14" fill="#a6dba0" stroke="#a6dba0" stroke-width="0"/>
	<path d="M 387 62.0 v 12 a 14 14 90 0 1 -14 14 H 285 a 14 14 90 0 1 -14 -14 V 62.0 H 116" fill="#d9f0d3" stroke="#d9f0d3" stroke-width="0"/>
	<rect x="271" y="36" width="116" height="52" fill="none" rx="14" stroke="#5aae61" stroke-width="1.5"/>
	<line x1="271" y1="62" x2="387" y2="62" stroke="#5aae61" stroke-width="1"/>
	<text x="278" y="54.6" fill="#000000" font-family="Courier New" font-size="14">is tagged as</text>
</g>

<!-- Association belongs to -->
<line x1="190" y1="62" x2="59" y2="62" stroke="#5aae61" stroke-width="1"/>
<text x="114" y="78.0" fill="#762a83" font-family="Courier New" font-size="12">1,1</text>
<line x1="59" y1="165" x2="59" y2="62" stroke="#5aae61" stroke-width="1"/>
<text x="64.0" y="104" fill="#762a83" font-family="Courier New" font-size="12">0,N</text>
<g id="association-belongs to">
	<path d="M 95 36 a 14 14 90 0 1 14 14 V 62 h -100 V 50 a 14 14 90 0 1 14 -14" fill="#a6dba0" stroke="#a6dba0" stroke-width="0"/>
	<path d="M 109 62.0 v 12 a 14 14 90 0 1 -14 14 H 23 a 14 14 90 0 1 -14 -14 V 62.0 H 100" fill="#d9f0d3" stroke="#d9f0d3" stroke-width="0"/>
	<rect x="9" y="36" width="100" height="52" fill="none" rx="14" stroke="#5aae61" stroke-width="1.5"/>
	<line x1="9" y1="62" x2="109" y2="62" stroke="#5aae61" stroke-width="1"/>
	<text x="16" y="54.6" fill="#000000" font-family="Courier New" font-size="14">belongs to</text>
</g>

<!-- Entity LIST -->
<g id="entity-LIST">
	<g id="frame-LIST">
		<rect x="11" y="112" width="96" height="26" fill="#c2a5cf" stroke="#c2a5cf" stroke-width="0"/>
		<rect x="11" y="138.0" width="96" height="80" fill="#e7d4e8" stroke="#e7d4e8" stroke-width="0"/>
		<rect x="11" y="112" width="96" height="106" fill="none" stroke="#9970ab" stroke-width="1.5"/>
		<line x1="11" y1="138" x2="107" y2="138" stroke="#9970ab" stroke-width="1"/>
	</g>
	<text x="41" y="130.6" fill="#000000" font-family="Courier New" font-size="14">LIST</text>
	<text x="16" y="156.6" fill="#000000" font-family="Courier New" font-size="14">list title</text>
	<line x1="16" y1="159.0" x2="101" y2="159.0" stroke="#000000" stroke-width="1"/>
	<text x="16" y="174.6" fill="#000000" font-family="Courier New" font-size="14">page order</text>
	<text x="16" y="192.6" fill="#000000" font-family="Courier New" font-size="14">created at</text>
	<text x="16" y="210.6" fill="#000000" font-family="Courier New" font-size="14">updated at</text>
</g>

<!-- Entity CARD -->
<g id="entity-CARD">
	<g id="frame-CARD">
		<rect x="142" y="9" width="96" height="26" fill="#c2a5cf" stroke="#c2a5cf" stroke-width="0"/>
		<rect x="142" y="35.0" width="96" height="80" fill="#e7d4e8" stroke="#e7d4e8" stroke-width="0"/>
		<rect x="142" y="9" width="96" height="106" fill="none" stroke="#9970ab" stroke-width="1.5"/>
		<line x1="142" y1="35" x2="238" y2="35" stroke="#9970ab" stroke-width="1"/>
	</g>
	<text x="172" y="27.6" fill="#000000" font-family="Courier New" font-size="14">CARD</text>
	<text x="147" y="53.6" fill="#000000" font-family="Courier New" font-size="14">card title</text>
	<line x1="147" y1="56.0" x2="232" y2="56.0" stroke="#000000" stroke-width="1"/>
	<text x="147" y="71.6" fill="#000000" font-family="Courier New" font-size="14">list order</text>
	<text x="147" y="89.6" fill="#000000" font-family="Courier New" font-size="14">created at</text>
	<text x="147" y="107.6" fill="#000000" font-family="Courier New" font-size="14">updated at</text>
</g>

<!-- Entity LABEL -->
<g id="entity-LABEL">
	<g id="frame-LABEL">
		<rect x="277" y="121" width="104" height="26" fill="#c2a5cf" stroke="#c2a5cf" stroke-width="0"/>
		<rect x="277" y="147.0" width="104" height="62" fill="#e7d4e8" stroke="#e7d4e8" stroke-width="0"/>
		<rect x="277" y="121" width="104" height="88" fill="none" stroke="#9970ab" stroke-width="1.5"/>
		<line x1="277" y1="147" x2="381" y2="147" stroke="#9970ab" stroke-width="1"/>
	</g>
	<text x="307" y="139.6" fill="#000000" font-family="Courier New" font-size="14">LABEL</text>
	<text x="282" y="165.6" fill="#000000" font-family="Courier New" font-size="14">label title</text>
	<line x1="282" y1="168.0" x2="376" y2="168.0" stroke="#000000" stroke-width="1"/>
	<text x="282" y="183.6" fill="#000000" font-family="Courier New" font-size="14">created at</text>
	<text x="282" y="201.6" fill="#000000" font-family="Courier New" font-size="14">updated at</text>
</g>
</svg>